<mxfile host="app.diagrams.net" modified="2021-05-30T09:07:43.561Z" agent="5.0 (Macintosh; Intel Mac OS X 10_15_7) AppleWebKit/537.36 (KHTML, like Gecko) Chrome/90.0.4430.212 Safari/537.36" etag="ZTXnnqpr-Cbuh6YQfxoc" version="14.7.1" type="github">
  <diagram id="bBEsWjYB-VJa9CLG2Qse" name="Page-1">
    <mxGraphModel dx="1833" dy="981" grid="1" gridSize="10" guides="1" tooltips="1" connect="1" arrows="1" fold="1" page="1" pageScale="1" pageWidth="850" pageHeight="1100" math="0" shadow="0">
      <root>
        <mxCell id="0" />
        <mxCell id="1" parent="0" />
        <mxCell id="Qc0X51KpT1W0CerE1DGH-5" style="rounded=0;orthogonalLoop=1;jettySize=auto;html=1;exitX=0.5;exitY=1;exitDx=0;exitDy=0;entryX=0.5;entryY=0;entryDx=0;entryDy=0;" parent="1" source="Qc0X51KpT1W0CerE1DGH-2" target="Qc0X51KpT1W0CerE1DGH-4" edge="1">
          <mxGeometry relative="1" as="geometry" />
        </mxCell>
        <mxCell id="Qc0X51KpT1W0CerE1DGH-8" value="User&#39;s input" style="edgeLabel;html=1;align=center;verticalAlign=middle;resizable=0;points=[];" parent="Qc0X51KpT1W0CerE1DGH-5" vertex="1" connectable="0">
          <mxGeometry x="-0.1931" y="-1" relative="1" as="geometry">
            <mxPoint y="2" as="offset" />
          </mxGeometry>
        </mxCell>
        <mxCell id="Qc0X51KpT1W0CerE1DGH-2" value="&lt;font style=&quot;font-size: 18px&quot;&gt;&lt;b&gt;Main&lt;/b&gt;&lt;/font&gt;" style="rounded=0;whiteSpace=wrap;html=1;" parent="1" vertex="1">
          <mxGeometry x="360" y="160" width="80" height="40" as="geometry" />
        </mxCell>
        <mxCell id="Qc0X51KpT1W0CerE1DGH-9" style="edgeStyle=orthogonalEdgeStyle;rounded=0;orthogonalLoop=1;jettySize=auto;html=1;exitX=0;exitY=1;exitDx=0;exitDy=0;entryX=0.5;entryY=0;entryDx=0;entryDy=0;" parent="1" source="Qc0X51KpT1W0CerE1DGH-4" target="Qc0X51KpT1W0CerE1DGH-15" edge="1">
          <mxGeometry relative="1" as="geometry">
            <mxPoint x="280" y="400" as="targetPoint" />
            <Array as="points">
              <mxPoint x="260" y="320" />
            </Array>
          </mxGeometry>
        </mxCell>
        <mxCell id="Qc0X51KpT1W0CerE1DGH-12" value="Source code" style="edgeLabel;html=1;align=center;verticalAlign=middle;resizable=0;points=[];" parent="Qc0X51KpT1W0CerE1DGH-9" vertex="1" connectable="0">
          <mxGeometry x="-0.042" relative="1" as="geometry">
            <mxPoint x="-45" y="33" as="offset" />
          </mxGeometry>
        </mxCell>
        <mxCell id="Qc0X51KpT1W0CerE1DGH-10" style="rounded=0;orthogonalLoop=1;jettySize=auto;html=1;exitX=0.5;exitY=1;exitDx=0;exitDy=0;entryX=1;entryY=0.5;entryDx=0;entryDy=0;edgeStyle=orthogonalEdgeStyle;" parent="1" source="Qc0X51KpT1W0CerE1DGH-4" target="Qc0X51KpT1W0CerE1DGH-15" edge="1">
          <mxGeometry relative="1" as="geometry">
            <mxPoint x="400" y="400" as="targetPoint" />
            <Array as="points">
              <mxPoint x="400" y="360" />
              <mxPoint x="360" y="360" />
              <mxPoint x="360" y="420" />
            </Array>
          </mxGeometry>
        </mxCell>
        <mxCell id="Qc0X51KpT1W0CerE1DGH-11" style="edgeStyle=orthogonalEdgeStyle;rounded=0;orthogonalLoop=1;jettySize=auto;html=1;exitX=1;exitY=1;exitDx=0;exitDy=0;entryX=1;entryY=0.5;entryDx=0;entryDy=0;" parent="1" source="Qc0X51KpT1W0CerE1DGH-4" target="Qc0X51KpT1W0CerE1DGH-17" edge="1">
          <mxGeometry relative="1" as="geometry">
            <mxPoint x="520" y="360" as="targetPoint" />
          </mxGeometry>
        </mxCell>
        <mxCell id="Qc0X51KpT1W0CerE1DGH-14" value="Compile flags" style="edgeLabel;html=1;align=center;verticalAlign=middle;resizable=0;points=[];" parent="Qc0X51KpT1W0CerE1DGH-11" vertex="1" connectable="0">
          <mxGeometry x="-0.042" y="2" relative="1" as="geometry">
            <mxPoint y="-10" as="offset" />
          </mxGeometry>
        </mxCell>
        <mxCell id="Qc0X51KpT1W0CerE1DGH-23" style="edgeStyle=orthogonalEdgeStyle;rounded=0;orthogonalLoop=1;jettySize=auto;html=1;exitX=0.5;exitY=1;exitDx=0;exitDy=0;entryX=1;entryY=0.5;entryDx=0;entryDy=0;" parent="1" source="Qc0X51KpT1W0CerE1DGH-4" target="Qc0X51KpT1W0CerE1DGH-20" edge="1">
          <mxGeometry relative="1" as="geometry" />
        </mxCell>
        <mxCell id="Qc0X51KpT1W0CerE1DGH-24" value="File flags" style="edgeLabel;html=1;align=center;verticalAlign=middle;resizable=0;points=[];" parent="Qc0X51KpT1W0CerE1DGH-23" vertex="1" connectable="0">
          <mxGeometry x="-0.8804" y="1" relative="1" as="geometry">
            <mxPoint y="10" as="offset" />
          </mxGeometry>
        </mxCell>
        <mxCell id="Qc0X51KpT1W0CerE1DGH-4" value="&lt;font style=&quot;font-size: 18px&quot;&gt;&lt;b&gt;Input&lt;/b&gt;&lt;/font&gt;" style="rounded=0;whiteSpace=wrap;html=1;" parent="1" vertex="1">
          <mxGeometry x="360" y="280" width="80" height="40" as="geometry" />
        </mxCell>
        <mxCell id="Qc0X51KpT1W0CerE1DGH-18" value="" style="edgeStyle=orthogonalEdgeStyle;rounded=0;orthogonalLoop=1;jettySize=auto;html=1;exitX=0.5;exitY=1;exitDx=0;exitDy=0;entryX=0.5;entryY=0;entryDx=0;entryDy=0;" parent="1" source="Qc0X51KpT1W0CerE1DGH-15" target="Qc0X51KpT1W0CerE1DGH-17" edge="1">
          <mxGeometry y="-20" relative="1" as="geometry">
            <mxPoint as="offset" />
          </mxGeometry>
        </mxCell>
        <mxCell id="Qc0X51KpT1W0CerE1DGH-19" value="Execution file" style="edgeLabel;html=1;align=center;verticalAlign=middle;resizable=0;points=[];" parent="Qc0X51KpT1W0CerE1DGH-18" vertex="1" connectable="0">
          <mxGeometry x="-0.2727" relative="1" as="geometry">
            <mxPoint y="4" as="offset" />
          </mxGeometry>
        </mxCell>
        <mxCell id="Qc0X51KpT1W0CerE1DGH-15" value="&lt;font style=&quot;font-size: 18px&quot;&gt;&lt;b&gt;PreProcessor&lt;/b&gt;&lt;/font&gt;" style="rounded=0;whiteSpace=wrap;html=1;" parent="1" vertex="1">
          <mxGeometry x="200" y="400" width="120" height="40" as="geometry" />
        </mxCell>
        <mxCell id="Qc0X51KpT1W0CerE1DGH-16" style="edgeStyle=none;rounded=0;orthogonalLoop=1;jettySize=auto;html=1;exitX=0.75;exitY=1;exitDx=0;exitDy=0;" parent="1" source="Qc0X51KpT1W0CerE1DGH-15" target="Qc0X51KpT1W0CerE1DGH-15" edge="1">
          <mxGeometry relative="1" as="geometry" />
        </mxCell>
        <mxCell id="Qc0X51KpT1W0CerE1DGH-21" style="edgeStyle=orthogonalEdgeStyle;rounded=0;orthogonalLoop=1;jettySize=auto;html=1;exitX=0.5;exitY=1;exitDx=0;exitDy=0;entryX=0.375;entryY=0;entryDx=0;entryDy=0;entryPerimeter=0;" parent="1" source="Qc0X51KpT1W0CerE1DGH-17" target="Qc0X51KpT1W0CerE1DGH-20" edge="1">
          <mxGeometry relative="1" as="geometry" />
        </mxCell>
        <mxCell id="Qc0X51KpT1W0CerE1DGH-22" value="Execution file" style="edgeLabel;html=1;align=center;verticalAlign=middle;resizable=0;points=[];" parent="Qc0X51KpT1W0CerE1DGH-21" vertex="1" connectable="0">
          <mxGeometry x="-0.4317" relative="1" as="geometry">
            <mxPoint y="10" as="offset" />
          </mxGeometry>
        </mxCell>
        <mxCell id="Qc0X51KpT1W0CerE1DGH-17" value="&lt;b&gt;&lt;font style=&quot;font-size: 18px&quot;&gt;Compilation&lt;/font&gt;&lt;/b&gt;" style="rounded=0;whiteSpace=wrap;html=1;" parent="1" vertex="1">
          <mxGeometry x="200" y="520" width="120" height="40" as="geometry" />
        </mxCell>
        <mxCell id="Qc0X51KpT1W0CerE1DGH-20" value="&lt;b&gt;&lt;font style=&quot;font-size: 18px&quot;&gt;PostProcessor&lt;/font&gt;&lt;/b&gt;" style="rounded=0;whiteSpace=wrap;html=1;" parent="1" vertex="1">
          <mxGeometry x="200" y="640" width="160" height="40" as="geometry" />
        </mxCell>
      </root>
    </mxGraphModel>
  </diagram>
</mxfile>
